<svg xmlns="http://www.w3.org/2000/svg" viewBox="0 0 225.58 71.93"><title>profile_title</title><g id="レイヤー_2" data-name="レイヤー 2"><g id="レイヤー_1-2" data-name="レイヤー 1"><path d="M28.24,43.07,17.7,44.28l.91,8L4.44,53.86,0,14.94l24.8-2.83c7.87-.9,13.65,2.31,14.83,12.66l.35,3.1C40.91,36,37.54,42,28.24,43.07ZM25.5,27.59c-.26-2.34-1.06-2.54-3.16-2.3l-6.72.77.61,5.34L23,30.63c2.05-.23,2.8-.9,2.6-2.62Z"/><path d="M65.35,47.21l-.6-5.29c-.17-1.46-.89-2-2.39-1.86l-4.11.47.84,7.4L48.18,49.17,44.85,20,63,17.93c6.19-.71,10.13,1.16,11,9.21l.19,1.71a7.83,7.83,0,0,1-1.3,5.73c1.59.94,2.33,2.63,2.62,5.14L76.22,46ZM63.51,29.53c-.16-1.4-.79-1.83-2.36-1.65l-4.29.49.44,3.86,4.29-.49c1.61-.18,2.06-1,2-1.89Z"/><path d="M97.09,43.74l-3.75.43c-10.3,1.17-13-1.27-14.13-11.11l-.5-4.4c-1.12-9.8,1-12.82,11.26-14l3.75-.43c9.55-1.09,13.16,1.29,14.28,11.09l.5,4.4C109.62,39.56,107.36,42.57,97.09,43.74Zm.27-17c-.23-2-1.13-3.28-3.75-3l-1.39.16c-2.11.24-3.27,1.2-3,3.74l.44,3.87c.29,2.5,1.14,3.31,3.75,3l1.4-.16c2.61-.3,3.2-1.78,3-3.78Z"/><path d="M125,20.59c-2.19.25-2.53,1.05-2.3,3.05l0,.29,16.35-1.87.95,8.37L123.69,32.3l.93,8.15L114,41.67,112.06,25c-1-8.44,2.11-13,9.62-13.82l16.81-1.91,1.1,9.62Z"/><path d="M147,37.9,143.68,8.71l11-1.25L158,36.64Z"/><path d="M174.87,34.72c-7.72.88-12-2.44-12.78-9.48L160,6.85,171,5.6l1.95,17.13a2.39,2.39,0,0,0,3,2.16l14.27-1.63,1.09,9.59Z"/><path d="M206.45,31.11c-8.51,1-11.49-3.25-12.24-9.83l-.63-5.54c-.85-7.41.14-12.74,9.65-13.82L220,0l1.05,9.23-14.91,1.7a1.94,1.94,0,0,0-2,2.22L220,11.34l.78,6.87L204.9,20c.15,1.33.51,1.94,2.51,1.71L222.32,20l1.05,9.15Z"/><path d="M109.08,71.76a.79.79,0,0,1-1-.33.67.67,0,0,1,.09-1c5.68-3.38,7.54-7.3,8.44-10.89H106.08c-.34,0-.63-.32-.63-.8a.71.71,0,0,1,.63-.78h9.33a3.88,3.88,0,0,0,1.5-.2.49.49,0,0,1,.44,0,1.17,1.17,0,0,1,.61.43,2.32,2.32,0,0,1,.47.82,1.71,1.71,0,0,1,0,.32C116.89,63.89,115.77,67.42,109.08,71.76ZM119.53,58.5a1.9,1.9,0,0,1,0-3.8,1.9,1.9,0,1,1,0,3.8Zm0-3.12a1.22,1.22,0,1,0,0,2.43,1.22,1.22,0,1,0,0-2.43Z"/><path d="M138.86,71.11c-.48,0-.8-.27-.8-.61v-.66h-9.27v.68c0,.32-.31.59-.78.59s-.78-.27-.78-.59V59.77a1.1,1.1,0,0,1,1.21-1.1h7.93a5.21,5.21,0,0,0,1.63-.16,1.31,1.31,0,0,1,1,0,.92.92,0,0,1,.6.78V70.5C139.63,70.84,139.31,71.11,138.86,71.11Zm-.8-10.89h-9.27v8h9.27Z"/><path d="M150.94,71.76a.82.82,0,0,1-1.05-.33.68.68,0,0,1,.1-1c5.85-3.42,8.3-7.28,9.25-10.89H147.92c-.32,0-.61-.3-.61-.78a.7.7,0,0,1,.61-.78h10.24a5,5,0,0,0,1.59-.2.47.47,0,0,1,.46,0,1.22,1.22,0,0,1,.49.41,2.44,2.44,0,0,1,.4.76,1.08,1.08,0,0,1,0,.36C159.55,63.74,157.78,67.35,150.94,71.76Z"/><path d="M176.08,64.23a.59.59,0,0,1,.38.53c0,1.73-.06,4.7,0,6.6a.62.62,0,0,1-.69.57c-.45,0-.74-.27-.74-.57V65c-1.25.86-2.7,1.75-4.41,2.76-.26.17-.64,0-.89-.32a.64.64,0,0,1,.1-.93c4.8-2.78,7.58-4.74,8.87-6.67a.67.67,0,0,1,1-.08c.36.32.43.72.2,1A21.13,21.13,0,0,1,176.08,64.23Z"/><path d="M203,64.61H189.11a.78.78,0,0,1,0-1.54H203a.77.77,0,0,1,0,1.54Z"/><path d="M210.64,70.79a.73.73,0,0,1-1-.14.7.7,0,0,1-.07-1c2.6-2.55,3-3.52,3-10.66,0-.34.32-.63.8-.63a.71.71,0,0,1,.78.63C214.1,66.66,213.85,67.58,210.64,70.79Zm7.14.41a.79.79,0,0,1-.93-.39,1,1,0,0,1,0-1.07,4,4,0,0,0,.21-1.67V58.31c0-.33.31-.61.78-.61s.78.28.78.61V69.12a19.36,19.36,0,0,0,5.77-3.84.68.68,0,0,1,1,.17.75.75,0,0,1,0,1.06A23.62,23.62,0,0,1,217.78,71.2Z"/></g></g></svg>