<svg xmlns="http://www.w3.org/2000/svg" viewBox="0 0 158.79 50.94"><title>アセット 1</title><g id="レイヤー_2" data-name="レイヤー 2"><g id="レイヤー_1-2" data-name="レイヤー 1"><path d="M.83,13.83c-.17.11-.47,0-.68-.36s-.19-.6,0-.7A7.2,7.2,0,0,0,3.14,9c.07-.2.36-.24.66,0s.43.53.33.72A9.47,9.47,0,0,1,.83,13.83Zm9.93,2.55a.54.54,0,0,1-.66-.28,40,40,0,0,0-2.79-5.84.42.42,0,0,1,.09-.62.5.5,0,0,1,.66.12,42.39,42.39,0,0,1,3,6A.43.43,0,0,1,10.76,16.38Zm-.95-6.11A1.69,1.69,0,0,1,8.6,8.74a.92.92,0,0,1,1.21-.92A1.64,1.64,0,0,1,11,9.33.93.93,0,0,1,9.81,10.27Zm0-2a.6.6,0,0,0-.8.59,1.1,1.1,0,0,0,.8,1,.61.61,0,0,0,.8-.59A1.08,1.08,0,0,0,9.81,8.25Z"/><path d="M15.7,19.43c-.2.09-.48,0-.68-.33s-.13-.57.06-.66c3.77-1.54,5.35-3.89,6-6.13q-3.64-.42-7.29-1.13a.57.57,0,0,1-.39-.58c0-.31.18-.47.39-.43,2.2.44,4.4.78,6.6,1.05a3,3,0,0,0,1,0,.31.31,0,0,1,.3,0,1,1,0,0,1,.32.3,1.74,1.74,0,0,1,.25.52.45.45,0,0,1,0,.23C21.24,15,20.1,17.32,15.7,19.43Z"/><path d="M33.76,15.56H31.68V19c0,1.07-.18,1.4-2,1.8-.21.07-.42-.1-.5-.38a.38.38,0,0,1,.27-.51c1.23-.19,1.3-.37,1.3-1.06V15.54h-.31A7.16,7.16,0,0,1,27,19.62a.4.4,0,0,1-.55-.21.37.37,0,0,1,.06-.55,6,6,0,0,0,3-3.35c-.9,0-1.79-.07-2.69-.12a.42.42,0,0,1-.34-.46.35.35,0,0,1,.34-.39c1.31.07,2.61.12,3.92.15V13.1a.39.39,0,0,1,.45-.35.41.41,0,0,1,.44.36V14.7h2.08a.36.36,0,0,1,.34.41C34.1,15.38,33.94,15.56,33.76,15.56Z"/><path d="M46.8,15.56c-3,.29-6,.5-9,.61a.46.46,0,0,1-.44-.48.5.5,0,0,1,.44-.51c3-.11,6-.32,9-.61a.43.43,0,0,1,.46.44A.56.56,0,0,1,46.8,15.56Z"/><path d="M56.23,19.18c-1.67-.57-3.35-1.15-5-1.76-.2-.07-.28-.32-.15-.6s.38-.43.58-.35c1.68.6,3.35,1.18,5,1.74.19.07.28.3.15.6S56.42,19.25,56.23,19.18Zm-.49-3.77a13.83,13.83,0,0,0-3.45-1.34c-.21,0-.33-.26-.22-.55a.53.53,0,0,1,.55-.4,15.67,15.67,0,0,1,3.66,1.32c.19.09.27.36.1.67A.53.53,0,0,1,55.74,15.41Zm.82-3.65a13.55,13.55,0,0,0-3.45-1.31c-.21,0-.33-.26-.22-.54a.53.53,0,0,1,.54-.4,14.61,14.61,0,0,1,3.68,1.28c.19.09.26.37.09.66A.52.52,0,0,1,56.56,11.76Z"/><path d="M63.18,17.51a.42.42,0,0,1-.58-.26.51.51,0,0,1,.24-.66,24.18,24.18,0,0,0,8.55-6.66.43.43,0,0,1,.65,0,.46.46,0,0,1,0,.67A26.25,26.25,0,0,1,63.18,17.51Zm3-6.42c-.22.27-.5.33-.66.2A9.91,9.91,0,0,0,63,9.51c-.17-.07-.23-.32-.06-.6s.39-.38.58-.31a11,11,0,0,1,2.8,1.81C66.45,10.54,66.43,10.81,66.21,11.09Z"/><path d="M76.9,15.75a.47.47,0,0,1-.65,0,.45.45,0,0,1,0-.67c3.83-3.13,4.84-5.74,5.15-7.6l-3.65.69a25.17,25.17,0,0,1-2.53,3.54.48.48,0,0,1-.66.09.44.44,0,0,1-.09-.65c2.18-2.64,2.74-3.48,3.42-5.75a.49.49,0,0,1,.6-.32.39.39,0,0,1,.33.51c-.2.57-.37,1-.55,1.48l2.35-.45a4.33,4.33,0,0,0,1.2-.33.55.55,0,0,1,.6,0,.52.52,0,0,1,.2.54C81.81,10.22,81.06,12.09,76.9,15.75ZM83.2,5.59c-.17.13-.35.13-.43,0l-.62-.89c-.08-.1,0-.28.13-.41s.36-.14.43,0l.62.88C83.41,5.26,83.36,5.44,83.2,5.59Zm1.21-.74c-.16.13-.33.14-.41,0L83.38,4a.36.36,0,0,1,.14-.44c.16-.13.34-.12.41,0l.62.88A.34.34,0,0,1,84.41,4.85Z"/><path d="M93.1,7.57a.48.48,0,0,1-.67,0A.43.43,0,0,1,92.37,7a12.89,12.89,0,0,0,2-2.85q-3.63.61-7.26,1.27c-.2,0-.39-.13-.39-.44a.56.56,0,0,1,.39-.56q3.39-.61,6.78-1.19a3.29,3.29,0,0,0,.8-.23.71.71,0,0,1,.83,0,.62.62,0,0,1,.2.76A23,23,0,0,1,93.1,7.57ZM89,13.33a.5.5,0,0,1-.67.12.4.4,0,0,1-.13-.6c2-2.7,2.2-3.36,2.21-6.41a.56.56,0,0,1,.5-.48c.31-.06.51.11.51.3C91.36,9.51,91.07,10.44,89,13.33Z"/><path d="M108,5.73c-3,.32-6,.72-9,1.17a.4.4,0,0,1-.44-.43A.58.58,0,0,1,99,5.91c3-.45,6-.85,9-1.17a.43.43,0,0,1,.46.44A.56.56,0,0,1,108,5.73Z"/><path d="M120.27,4.31c-1.24,0-2.47.09-3.71.15-.06,2.38-.43,3.05-2.46,5.46a.51.51,0,0,1-.76-.66c1.86-2.14,2.16-2.86,2.22-4.74-1.44.09-2.87.2-4.31.33-.22,0-.4-.19-.4-.49a.5.5,0,0,1,.4-.54c3-.27,6-.46,9-.54a.44.44,0,0,1,.4.49A.49.49,0,0,1,120.27,4.31ZM118.85,1q-3.06.12-6.12.37c-.22,0-.4-.18-.4-.48a.49.49,0,0,1,.4-.53q3.06-.24,6.12-.36c.22,0,.4.18.4.47S119.07,1,118.85,1Z"/><path d="M128.57,4.69a.41.41,0,0,1,.24.36c0,1.11,0,3,0,4.24a.38.38,0,0,1-.44.35.44.44,0,0,1-.48-.39V5.13c-.8.52-1.74,1.07-2.84,1.7-.17.11-.41,0-.57-.21a.41.41,0,0,1,.06-.6c3.1-1.76,4.88-2.9,5.71-4.1a.43.43,0,0,1,.64,0c.23.22.28.48.14.64A13.55,13.55,0,0,1,128.57,4.69Z"/><path d="M144.46,11.3a.46.46,0,0,1-.66-.08c-1-1.26-2-2.51-3-3.74a24.63,24.63,0,0,1-3.95,2.74.53.53,0,0,1-.65-.23c-.2-.26-.16-.54,0-.64,4.73-2.65,5.8-4.87,6-6.33-1.78-.33-3.55-.61-5.33-.84a.53.53,0,0,1-.41-.55c0-.32.19-.5.41-.48,1.5.2,3,.42,4.51.69a6.58,6.58,0,0,0,1,.14,1,1,0,0,1,.77.27.76.76,0,0,1,.29.74,8.68,8.68,0,0,1-2,3.86q1.56,1.89,3.12,3.82A.43.43,0,0,1,144.46,11.3Z"/><path d="M156,11.67q-1.89-2-3.76-3.8l-.06-.08c0,2.26,0,4.67,0,5.93,0,.23-.19.37-.51.27a.7.7,0,0,1-.53-.59V3.14c0-.22.21-.34.53-.24a.67.67,0,0,1,.51.58c0,.91,0,2.28,0,3.75l0,0a.43.43,0,0,1,.64,0c1.25,1.26,2.5,2.54,3.74,3.86a.49.49,0,0,1,0,.67A.42.42,0,0,1,156,11.67Z"/><path d="M1.69,36.15.91,31.47,8.38,26.7l.33,5.13Zm5.94,2.18.25,12.25H5.76L4.3,40.34l-1.71,1-.66-4L8.68,33l.25,4.6Zm3.75,12.31H9.56L9,43.17h2.87ZM25,32.1H19.2l-.11,1.16h5.79l-1.22,9.12h-14l-.44-9.12h5.59l-.06-1.16H9.23l-.19-4h5.4l-.09-1.38h5.32l-.11,1.38h6Zm-11.1,4.46H12.34l-.08,3.09H14Zm6.31,14.19H12.62l-.28-7.55h2.43l-.17,5.51h3.61l.22-4.1h2Zm-2.76-2.7h-1.9l-.11-5.23h2.34Zm.33-11.49H16.17l-.05,3.09h1.76Zm2.34,0-.27,3.09h1.68l.08-3.09Zm3,14H21.19l-.14-7.41h2.72Z"/><path d="M53.5,39H37.08l0,.77h17.6L54.44,42H37l0,.8H54.3l-1.1,8.1H51.27l-.19-5.62-7.22,0-.19,3.2h3.58l-.06-2.15H50l-.36,4-15,0-.55-4.1H37l0,2.26H40.8l-.27-3.2H34.19L32,28.11h8.15l-.06-1.38h6.72l0,1.38h8Zm-3.44-3.78H37.17v1.13H50.11ZM50,32.05H37.25l0,1H50Z"/><path d="M67.55,50.91l-2.17,0L62.24,28.36h5.64ZM85.07,35.08h-2.2l-.66,6.36h2.42l-.5,3.19H81.85l-.61,5.9H70l-.33-9.09H78.6l-.3-6.36H69.4l-.17-4.41h8.84L78,27.83h5.68l-.3,2.84h2.34Zm-6.36,9.53h-5.9l0,3.63h6.11Z"/><path d="M102.46,50.47H94.25l-.2-1.84h7l1-8.18H91.88l-.47-3.2,14.68,0Z"/><path d="M134.16,35.05H119l-.19,3.66H133.2l-1.79,12.18L116,50.83l-.19-2.59H129l.11-5.92H115.54l-.79-7.27h-2.26l-.72-4.38h2.48l-.36-3.25,5.48,0-.16,3.22h15.56Z"/><path d="M158.27,40.36H138.52l-.61-4h20.88Z"/></g></g></svg>