<svg xmlns="http://www.w3.org/2000/svg" viewBox="0 0 21.11 21.47"><title>instagram</title><g><g><path d="M15,0h-9A6.07,6.07,0,0,0,0,6.07V15.4a6.07,6.07,0,0,0,6.07,6.07h9a6.07,6.07,0,0,0,6.07-6.07V6.07A6.07,6.07,0,0,0,15,0ZM2.15,6.07A3.93,3.93,0,0,1,6.07,2.15h9A3.92,3.92,0,0,1,19,6.07V15.4A3.91,3.91,0,0,1,15,19.31h-9A3.92,3.92,0,0,1,2.15,15.4Z"/><path d="M10.55,16.26A5.53,5.53,0,1,0,5,10.73,5.54,5.54,0,0,0,10.55,16.26Zm0-9.33a3.81,3.81,0,1,1-3.8,3.8A3.81,3.81,0,0,1,10.55,6.93Z"/><circle cx="16.24" cy="5.04" r="1.24"/></g></g></svg>