<svg xmlns="http://www.w3.org/2000/svg" viewBox="0 0 26.17 21.26"><title>twitter</title><g><g><path d="M26.13,2.56l0,0a11,11,0,0,1-2.43.74l-.61.07a5.43,5.43,0,0,0,2-2.21,6.29,6.29,0,0,0,.32-.7h0s0,0,0,0A10.67,10.67,0,0,1,22,1.69a5.38,5.38,0,0,0-9.29,3.68,5.2,5.2,0,0,0,.13,1.12.34.34,0,0,0,0,.1,15.26,15.26,0,0,1-10-4.49c-.34-.35-.68-.72-1-1.1h0l0,0a5.35,5.35,0,0,0,1,6.6,5.91,5.91,0,0,0,.66.56,5.37,5.37,0,0,1-2.39-.66v.06A5.35,5.35,0,0,0,4.18,12.4a4.92,4.92,0,0,0,1.13.41A5.2,5.2,0,0,1,3.94,13a5.26,5.26,0,0,1-.89-.08l-.09,0h0a5.4,5.4,0,0,0,4.16,3.64,5.7,5.7,0,0,0,.83.1,10.76,10.76,0,0,1-6.64,2.28c-.35,0-.69,0-1-.06l-.24,0,0,0H0a15.21,15.21,0,0,0,8.23,2.41,14.69,14.69,0,0,0,12.1-5.93s0,0,0,0c.25-.33.48-.67.69-1,.05-.07.1-.14.14-.21.2-.33.38-.67.56-1l.13-.25c.2-.42.39-.84.55-1.27h0A15.48,15.48,0,0,0,23.5,6c0-.23,0-.47,0-.7a10.88,10.88,0,0,0,2.21-2.13c.16-.21.33-.41.48-.62Z"/></g></g></svg>