<svg xmlns="http://www.w3.org/2000/svg" viewBox="0 0 295.03 79.6"><title>infomation_title</title><g id="レイヤー_2" data-name="レイヤー 2"><g id="レイヤー_1-2" data-name="レイヤー 1"><path d="M17.91,78.9c-1.1,0-2-.66-2.89-2.6-.11-.25,0-.59.4-.8a.61.61,0,0,1,.86.21c.62,1.35,1.17,1.6,1.63,1.6a2.5,2.5,0,0,0,2.47-2.44c0-2-1.27-2.92-3.51-2.92a10.63,10.63,0,0,0-3.84.83c0,2.09,0,3.75,0,4.11a7.5,7.5,0,0,0,.07,1.44,1,1,0,0,1-.59,1.1,1,1,0,0,1-1.21-.21A23.82,23.82,0,0,0,7.77,76c-.1.06-.18.14-.27.19a.65.65,0,0,1-1-.28.86.86,0,0,1,.14-1.14,39.19,39.19,0,0,1,4.86-3c0-1.2,0-2.44,0-3.61a38.36,38.36,0,0,1-3.87.05c-.36,0-.65-.36-.67-.87a.69.69,0,0,1,.78-.72,23.17,23.17,0,0,0,3.76,0c0-1.41,0-2.61,0-3.31,0-.38.36-.66.88-.65a.77.77,0,0,1,.81.75c0,.83,0,1.9-.07,3.05a19,19,0,0,0,2.32-.34.69.69,0,0,1,.76.69c0,.47-.21.83-.57.89-.69.11-1.56.21-2.51.3,0,1,0,2.07,0,3.08a10.8,10.8,0,0,1,3.8-.76C20,70.39,22,72,22,74.91A4.19,4.19,0,0,1,17.91,78.9Zm-6.42-5.39a21.31,21.31,0,0,0-2.77,1.74,24,24,0,0,0,2.35,2c.23.17.44.07.44-.23C11.51,76.24,11.51,75,11.49,73.51Zm10-4.64a14.31,14.31,0,0,0-3.21-2.34A.64.64,0,0,1,18,65.6c.25-.4.61-.59.92-.45a18.59,18.59,0,0,1,3.6,2.41.73.73,0,0,1,0,1.06C22.26,69,21.82,69.12,21.54,68.87Z"/><path d="M35.45,72H32.86a8.51,8.51,0,0,1-.13.86l3,3.32a.69.69,0,0,1,.23.48c0,.34-.49.91-.83.91a.58.58,0,0,1-.44-.27l-2.43-2.88a11.28,11.28,0,0,1-3.61,4.76.84.84,0,0,1-.42.12,1,1,0,0,1-.91-.86.68.68,0,0,1,.3-.55A9.32,9.32,0,0,0,31.33,72H27.7c-.46,0-.69-.19-.69-.79s.23-.8.69-.8h3.74V66.67H29.79c-.27.51-1,2.2-1.68,2.2a.86.86,0,0,1-.81-.8.62.62,0,0,1,.13-.4,18.29,18.29,0,0,0,2.24-4.37.74.74,0,0,1,.71-.49.67.67,0,0,1,.74.61,12.61,12.61,0,0,1-.63,1.73h4.63c.44,0,.67.19.67.76s-.23.76-.67.76H33v3.78h2.49c.45,0,.7.21.7.8S35.9,72,35.45,72Zm6.78,6.69H38.39A1.41,1.41,0,0,1,37,77.31V65.38A1.41,1.41,0,0,1,38.39,64h3.84a1.41,1.41,0,0,1,1.42,1.43V77.31A1.41,1.41,0,0,1,42.23,78.73ZM42.17,66a.52.52,0,0,0-.53-.53H39a.52.52,0,0,0-.53.53v10.7a.52.52,0,0,0,.53.53h2.66a.52.52,0,0,0,.53-.53Z"/><path d="M55,79.58a.74.74,0,0,1-.82-.58.68.68,0,0,1,.42-.9c5.34-1.19,6.38-2.56,6.38-3.8s-1-2-2.83-2C55.7,72.29,53,74,52.26,75.8a.78.78,0,0,1-.87.46c-.44-.06-.7-.32-.7-.63,0-4.4.13-6.44.6-8.41a.74.74,0,0,1,1-.44.7.7,0,0,1,.59.86,23.73,23.73,0,0,0-.49,5.9,8.19,8.19,0,0,1,5.89-2.81c2.28,0,4.41,1.2,4.41,3.71C62.64,76.22,61.46,78.05,55,79.58ZM58.76,66A25.36,25.36,0,0,0,54.18,64a.61.61,0,0,1-.38-.84c.19-.38.5-.59.8-.51a31.43,31.43,0,0,1,4.92,1.92.73.73,0,0,1,.19,1A.7.7,0,0,1,58.76,66Z"/><path d="M84.94,69.08c-.74.13-2,.28-3.48.42,0,1.63,0,3,0,3.17-.15,1.25-.72,1.73-4,2.43-.33.08-.65-.13-.78-.61a.62.62,0,0,1,.42-.85c2.39-.48,2.75-.8,2.75-1.79v-2.2c-1.88.15-4,.3-6,.38v6.12A1.29,1.29,0,0,0,75,77.44a77.9,77.9,0,0,0,7.79-.38.69.69,0,0,1,.72.76c0,.51-.26.85-.62.85a69.8,69.8,0,0,1-8.61.21,2.22,2.22,0,0,1-2-2.34c0-.72,0-3.66,0-6.45-1.07,0-2,0-2.89,0-.38,0-.68-.36-.68-.91a.73.73,0,0,1,.76-.78c.74.07,1.69.07,2.79.07,0-1.69,0-3.11-.08-3.65s.4-.7.84-.7c.59,0,.83.32.83.7v3.61c1.92,0,4.05-.19,6-.36,0-1.61-.06-3.13-.11-4.5,0-.34.3-.66.79-.66s.82.32.82.66c0,1.16.06,2.78.1,4.35,1.34-.15,2.52-.3,3.3-.44a.67.67,0,0,1,.78.71A.81.81,0,0,1,84.94,69.08Z"/><path d="M0,38.89,4.67,0,19.35,1.76l-4.67,38.9Z"/><path d="M36.81,43.66,38,33.4c.16-1.36-.46-1.9-1.71-2L34,31.07c-1.32-.16-2.19.43-2.33,1.57L30.48,42.9l-10.4-1.25,1.66-13.8c.57-4.75,3.62-7.46,8.44-6.89l11.69,1.41c4.82.58,7.64,4,7.07,8.75l-1.66,13.8Z"/><path d="M66.23,34.79,64.76,47,54.43,45.77,55.9,33.55l-5-.6,1-8.15,5,.6.11-1c.65-5.43,3.38-7.57,9.63-6.82L77.88,19,77,26.62l-7.83-.94c-1-.12-1.62.24-1.85,1l9.54,1.15-1,8.15Z"/><path d="M93.9,50.7l-8-1c-6.57-.79-9.06-4.21-8.38-9.93L78,35.37c.67-5.61,4-8.37,10.48-7.58l8,1c6.68.8,8.84,4.58,8.22,9.73l-.56,4.71C103.57,48.38,100.59,51.5,93.9,50.7Zm1-11.49a1.3,1.3,0,0,0-1.26-1.53l-4.51-.54a1.31,1.31,0,0,0-1.62,1.18l-.11.93c-.1.83.08,1.43,1.29,1.57l4.51.54a1.28,1.28,0,0,0,1.59-1.22Z"/><path d="M120.68,41.48a3,3,0,0,0-3.6,2.5L116,53.17l-10.26-1.24,1.13-9.4c1-8.57,6.61-11.57,12.69-10.84l11.33,1.36-1.15,9.51Z"/><path d="M151.29,57.4l1.31-10.9c.13-1.07-.17-1.58-1.6-1.75l-1.5,12.44-7.39-.89,1.49-12.44c-1.08,0-1.89.32-2,1.32l-1.3,10.9L130.81,55l1.7-14.12c.54-4.5,4.26-7.07,9.47-6.44l12.83,1.54c5.19.62,8.22,4,7.68,8.5L160.8,58.55Z"/><path d="M184.14,61.35l-13.26-1.59c-4.72-.57-7-3.46-6.6-6.92l.18-1.5c.41-3.43,3.22-5.35,7.54-4.83l10.58,1.27c.09-.75-.19-1.18-1.19-1.3l-15-1.8.88-7.33,18.48,2.22c6.18.74,7.6,4,6.94,9.5l-.89,7.43C191.38,59.93,188.71,61.9,184.14,61.35Zm-2.45-7.65c0-.29-.15-.6-.72-.67l-5.4-.65c-.68-.08-.88.11-.92.47l0,.29c0,.35.11.62.79.71l5.39.64c.61.08.81-.08.86-.51Z"/><path d="M209.48,52l-.2,1.72c-.12,1,0,1.16,1.14,1.29l9.83,1.18-1.12,9.33L205.94,64c-5.93-.72-7.7-3.76-7.19-8l.62-5.14-4.47-.54,1.13-9.4,4.46.54.49-4.08,10.12,1.22-.49,4.07L222.22,44l-1.12,9.4Z"/><path d="M222.85,66l2.34-19.48,10.26,1.23-2.34,19.48Zm2.54-21.12,1-8.08L236.61,38l-1,8.08Z"/><path d="M254.28,70l-8-1c-6.57-.79-9.06-4.21-8.38-9.93l.53-4.43c.68-5.61,4-8.37,10.49-7.59l8,1c6.68.8,8.84,4.58,8.22,9.72l-.57,4.72C264,67.63,261,70.76,254.28,70Zm1-11.48A1.3,1.3,0,0,0,254,56.94l-4.51-.54a1.3,1.3,0,0,0-1.62,1.18l-.12.93c-.09.82.09,1.42,1.3,1.57l4.5.54a1.28,1.28,0,0,0,1.6-1.22Z"/><path d="M282.83,73.2l1.23-10.26c.16-1.36-.46-1.9-1.71-2l-2.29-.28c-1.32-.15-2.19.43-2.33,1.57L276.5,72.44l-10.4-1.25,1.66-13.79c.57-4.76,3.61-7.47,8.44-6.89l11.68,1.4c4.83.58,7.65,4,7.07,8.75l-1.65,13.8Z"/></g></g></svg>