<svg xmlns="http://www.w3.org/2000/svg" viewBox="0 0 328.68 86.17"><title>performance_title</title><g id="レイヤー_2" data-name="レイヤー 2"><g id="レイヤー_1-2" data-name="レイヤー 1"><path d="M25.68,34,15.15,32.7l-1,7.95L0,38.86,4.93,0,29.69,3.14c7.86,1,12.71,5.48,11.4,15.82l-.39,3.09C39.66,30.2,35,35.21,25.68,34Zm1-15.7c.29-2.33-.43-2.71-2.53-3l-6.71-.85-.68,5.33,6.72.85c2,.26,2.93-.21,3.14-1.92Z"/><path d="M63.92,38.71,53,37.33c0,.72.24,1.3,1.38,1.44l15.43,2-.92,7.21L50.42,45.6c-5.5-.7-7.47-3.45-6.74-9.27l.86-6.79c.42-3.28,2.92-6.38,8-5.73l12.65,1.6c4.67.6,6.68,3.39,6.18,7.28l-.14,1.14C70.8,37.41,69,39.36,63.92,38.71ZM61.7,32.15c.06-.43-.22-.82-.83-.9l-5.49-.7a1.39,1.39,0,0,0-1.72,1.2l0,.32,7,.89c.53.07,1-.09,1-.63Z"/><path d="M87.27,38a3,3,0,0,0-3.62,2.48l-1.16,9.17L72.24,48.37,73.43,39c1.09-8.57,6.69-11.52,12.76-10.75l11.32,1.43-1.21,9.5Z"/><path d="M113.72,41.21l-1.55,12.22-10.32-1.31,1.55-12.21-5-.64,1-8.14,5,.63.12-1c.69-5.43,3.42-7.55,9.67-6.76l11.25,1.43-1,7.64-7.82-1a1.51,1.51,0,0,0-1.86,1l9.53,1.21-1,8.14Z"/><path d="M141.29,57.3l-8-1c-6.57-.83-9-4.26-8.31-10l.56-4.42c.71-5.61,4-8.35,10.53-7.52l8,1c6.68.84,8.81,4.63,8.15,9.77l-.59,4.72C151,55,148,58.15,141.29,57.3Zm1.05-11.48a1.29,1.29,0,0,0-1.25-1.53l-4.5-.58A1.31,1.31,0,0,0,135,44.89l-.12.93c-.1.82.08,1.42,1.29,1.57l4.5.57a1.29,1.29,0,0,0,1.61-1.21Z"/><path d="M168.13,48.26a3,3,0,0,0-3.62,2.48l-1.16,9.18-10.25-1.3,1.19-9.4C155.37,40.65,161,37.7,167,38.47l11.32,1.43-1.2,9.5Z"/><path d="M198.63,64.39,200,53.5c.14-1.07-.16-1.58-1.59-1.76l-1.58,12.42-7.39-.93L191,50.8c-1.08-.07-1.89.3-2,1.3L187.63,63l-9.46-1.2L180,47.69c.57-4.5,4.3-7,9.51-6.38l12.82,1.63c5.18.66,8.2,4.05,7.63,8.55l-1.79,14.1Z"/><path d="M231.45,68.55,218.2,66.87c-4.71-.6-7-3.5-6.55-7l.19-1.5c.43-3.43,3.25-5.32,7.57-4.78L230,55c.09-.75-.18-1.19-1.18-1.31l-15-1.91.93-7.32,18.46,2.35c6.18.78,7.58,4.08,6.89,9.54l-1,7.43C238.7,67.19,236,69.13,231.45,68.55Zm-2.4-7.67c0-.28-.14-.6-.71-.67l-5.4-.68c-.68-.09-.88.1-.93.46l0,.29c0,.35.1.62.78.71l5.39.68c.61.08.81-.07.86-.5Z"/><path d="M257.92,71.91l1.29-10.25c.18-1.36-.44-1.91-1.69-2.07l-2.29-.29c-1.32-.17-2.19.41-2.34,1.56l-1.3,10.25L241.2,69.79,243,56c.6-4.75,3.67-7.44,8.49-6.83l11.67,1.48c4.82.61,7.62,4.05,7,8.8l-1.75,13.78Z"/><path d="M280.7,74.79c-7.57-1-9.28-4.62-8.55-10.4l.4-3.15c.72-5.71,3.49-8.91,10.85-8l16.31,2.07-1.2,9.5L283.94,63c-1.11-.14-1.44.18-1.5.68l-.11.86c-.08.6.36.91,1.32,1l14.53,1.85L297,76.86Z"/><path d="M321.13,71.32,310.2,69.94c0,.72.24,1.3,1.38,1.44l15.43,2-.92,7.21-18.46-2.34c-5.5-.7-7.47-3.45-6.73-9.27l.86-6.79c.41-3.28,2.91-6.38,8-5.73L322.42,58c4.67.6,6.68,3.39,6.19,7.28l-.15,1.15C328,70,326.24,72,321.13,71.32Zm-2.22-6.56c.06-.42-.22-.82-.83-.9l-5.5-.7a1.38,1.38,0,0,0-1.71,1.2l0,.32,7,.89c.53.07.95-.09,1-.63Z"/><path d="M4.05,83.55a.7.7,0,0,1-1-.17.75.75,0,0,1,0-1.06,18.46,18.46,0,0,0,4.67-7.47.73.73,0,0,1,1-.34.75.75,0,0,1,.51.95A24.42,24.42,0,0,1,4.05,83.55Zm15.43-.65a.7.7,0,0,1-1-.19c-2-4.14-3.28-6.74-4.33-7.94a.69.69,0,0,1,.13-1c.38-.31.8-.35,1-.1,1.2,1.35,2.58,4.14,4.62,8.23A.81.81,0,0,1,19.48,82.9ZM18,73.77a1.91,1.91,0,0,1-1.88-1.9A1.89,1.89,0,1,1,18,73.77Zm0-3.14a1.23,1.23,0,1,0,1.23,1.24A1.23,1.23,0,0,0,18,70.63Z"/><path d="M29,86.08A.82.82,0,0,1,28,85.75a.68.68,0,0,1,.1-1c5.85-3.42,8.3-7.28,9.25-10.89H26c-.33,0-.61-.3-.61-.78s.28-.77.61-.77H36.26a5,5,0,0,0,1.59-.21.47.47,0,0,1,.46,0,1.22,1.22,0,0,1,.49.41,2.67,2.67,0,0,1,.4.76,1.15,1.15,0,0,1,0,.37C37.64,78.06,35.88,81.67,29,86.08Z"/><path d="M59,77.85H55.75v5.34c0,1.67-.29,2.16-3,2.87-.32.11-.65-.14-.78-.57a.6.6,0,0,1,.42-.8c1.92-.36,2-.63,2-1.71V77.85h-.47a12,12,0,0,1-5.38,6.56.61.61,0,0,1-.85-.29.58.58,0,0,1,.09-.85c3.06-2,4.12-3.69,4.71-5.42H48.28a.61.61,0,0,1-.53-.68.58.58,0,0,1,.53-.65h6.08V74.05a.64.64,0,0,1,.71-.55.63.63,0,0,1,.68.55v2.47H59a.58.58,0,0,1,.53.65A.61.61,0,0,1,59,77.85Z"/><path d="M81.13,78.93H67.21a.77.77,0,0,1,0-1.54H81.13a.77.77,0,0,1,0,1.54Z"/><path d="M95.42,82.28,96.88,84a.71.71,0,0,1-.2,1,.72.72,0,0,1-1,0L91,79.37a.7.7,0,0,1,.21-1,.73.73,0,0,1,1,0L94.42,81a22.82,22.82,0,0,0,5.79-6.23H88.13c-.34,0-.63-.32-.63-.8a.72.72,0,0,1,.63-.78H99.92a4.78,4.78,0,0,0,1.3-.15.68.68,0,0,1,.4,0,1.71,1.71,0,0,1,.7.56.84.84,0,0,1,.19.91A27.14,27.14,0,0,1,95.42,82.28Z"/><path d="M110.36,85.45a.77.77,0,0,1-.9-.55.68.68,0,0,1,.37-1,30.31,30.31,0,0,0,13.27-8,.68.68,0,0,1,1,.15.73.73,0,0,1,0,1.05C119.25,81.65,116.13,83.53,110.36,85.45Zm4.71-9.16a.72.72,0,0,1-1,.14A19,19,0,0,0,110,73a.64.64,0,0,1-.09-1,.7.7,0,0,1,.89-.32,21,21,0,0,1,4.35,3.55C115.43,75.5,115.41,75.91,115.07,76.29Z"/><path d="M143.45,85.72a.71.71,0,0,1-1,.09l-4.68-4.92a43,43,0,0,1-6.13,5.17.76.76,0,0,1-1-.25.66.66,0,0,1,0-1c7.33-5,9-9,9.35-11.26h-8.27a.72.72,0,0,1-.64-.78c0-.49.3-.82.64-.82h7a10.66,10.66,0,0,0,1.49,0,1.37,1.37,0,0,1,1.19.18,1,1,0,0,1,.46,1,16.7,16.7,0,0,1-3.12,6.59l4.85,5A.71.71,0,0,1,143.45,85.72Z"/></g></g></svg>